<svg xmlns="http://www.w3.org/2000/svg" viewBox="0 0 50.6 50.6"><defs><style>.cls-1{fill:#ff8dac;}</style></defs><title>Asset 6</title><g id="Layer_2" data-name="Layer 2"><g id="Layer_1-2" data-name="Layer 1"><path class="cls-1" d="M30.2,19.4V15.5c-1.4,0-1-.1-2.4-.1a6.31,6.31,0,0,0-3.2.7,4,4,0,0,0-1.7,1.7,7.4,7.4,0,0,0-.5,3v.5h-2l-.1,3.9h2v9.9h4V25.2h3.6l.5-3.9h-4s-.3-1.2.3-1.8A21.3,21.3,0,0,1,30.2,19.4Z"/><path class="cls-1" d="M25.3,50.6A25.3,25.3,0,1,1,50.6,25.3,25.33,25.33,0,0,1,25.3,50.6Zm0-47.4A22.1,22.1,0,1,0,47.4,25.3,22.11,22.11,0,0,0,25.3,3.2Z"/></g></g></svg>