<svg xmlns="http://www.w3.org/2000/svg" viewBox="0 0 50.6 50.6"><defs><style>.cls-1{fill:#16ffbd;}</style></defs><title>Asset 11</title><g id="Layer_2" data-name="Layer 2"><g id="Layer_1-2" data-name="Layer 1"><path class="cls-1" d="M25.3,50.6A25.3,25.3,0,1,1,50.6,25.3,25.33,25.33,0,0,1,25.3,50.6Zm0-47.4A22.1,22.1,0,1,0,47.4,25.3,22.11,22.11,0,0,0,25.3,3.2Z"/><path class="cls-1" d="M25.3,14.1c3.6,0,4.1,0,5.5.1a8.12,8.12,0,0,1,2.5.5,3.91,3.91,0,0,1,1.6,1,3.36,3.36,0,0,1,1,1.6,8.12,8.12,0,0,1,.5,2.5c.1,1.4.1,1.9.1,5.5s0,4.1-.1,5.5a8.12,8.12,0,0,1-.5,2.5,3.91,3.91,0,0,1-1,1.6,3.36,3.36,0,0,1-1.6,1,8.12,8.12,0,0,1-2.5.5c-1.4.1-1.9.1-5.5.1s-4.1,0-5.5-.1a8.12,8.12,0,0,1-2.5-.5,3.91,3.91,0,0,1-1.6-1,3.36,3.36,0,0,1-1-1.6,8.12,8.12,0,0,1-.5-2.5c-.1-1.4-.1-1.9-.1-5.5s0-4.1.1-5.5a8.12,8.12,0,0,1,.5-2.5,3.91,3.91,0,0,1,1-1.6,3.36,3.36,0,0,1,1.6-1,8.12,8.12,0,0,1,2.5-.5c1.4,0,1.9-.1,5.5-.1m0-2.4c-3.7,0-4.2,0-5.6.1a13,13,0,0,0-3.3.6A5.36,5.36,0,0,0,14,14a7.21,7.21,0,0,0-1.6,2.4,9.73,9.73,0,0,0-.6,3.3c-.1,1.5-.1,1.9-.1,5.6s0,4.2.1,5.6a13,13,0,0,0,.6,3.3A5.36,5.36,0,0,0,14,36.6a7.21,7.21,0,0,0,2.4,1.6,9.73,9.73,0,0,0,3.3.6c1.5.1,1.9.1,5.6.1s4.2,0,5.6-.1a13,13,0,0,0,3.3-.6,5.36,5.36,0,0,0,2.4-1.6,7.21,7.21,0,0,0,1.6-2.4,9.73,9.73,0,0,0,.6-3.3c.1-1.5.1-1.9.1-5.6s0-4.2-.1-5.6a13,13,0,0,0-.6-3.3A5.36,5.36,0,0,0,36.6,14a7.21,7.21,0,0,0-2.4-1.6,9.73,9.73,0,0,0-3.3-.6c-1.4-.1-1.9-.1-5.6-.1Z"/><path class="cls-1" d="M25.3,18.3a7,7,0,1,0,7,7A7,7,0,0,0,25.3,18.3Zm0,11.5a4.5,4.5,0,1,1,4.5-4.5A4.48,4.48,0,0,1,25.3,29.8Z"/><circle class="cls-1" cx="32.6" cy="18" r="1.6"/></g></g></svg>